<?xml version="1.0" encoding="utf-8"?>
<!-- Generator: Adobe Illustrator 22.1.0, SVG Export Plug-In . SVG Version: 6.00 Build 0)  -->
<svg version="1.1" id="Layer_1" xmlns="http://www.w3.org/2000/svg" xmlns:xlink="http://www.w3.org/1999/xlink" x="0px" y="0px"
	 viewBox="0 0 252.5 75.1" style="enable-background:new 0 0 252.5 75.1;" xml:space="preserve">
<style type="text/css">
	.st0{fill:#FFFFFF;stroke:#FFFFFF;stroke-width:2.76;stroke-miterlimit:3.86;}
	.st1{fill:#FFFFFF;}
</style>
<title>city-of-reykjavik</title>
<path class="st0" d="M24.7,1.4h23.1V45c-1.1,12.5-12.3,23.6-23.3,28.7c-11-5.1-22-16.1-23.2-28.7V1.4H24.7z"/>
<path d="M24.7,1.4h23.1V45c-1.1,12.5-12.3,23.6-23.3,28.7c-11-5.1-22-16.1-23.2-28.7V1.4H24.7z"/>
<rect x="10.3" y="2.3" class="st1" width="7.1" height="7.2"/>
<rect x="10.3" y="10.3" class="st1" width="7.2" height="1.8"/>
<polygon class="st1" points="5.8,14.2 9.4,16.6 9.4,20.1 5.8,17.8 2.3,20.1 2.3,16.6 "/>
<polygon class="st1" points="5.8,21.3 9.4,23.7 9.4,27.3 5.8,24.9 2.3,27.3 2.3,23.7 "/>
<polygon class="st1" points="5.8,28.5 9.4,30.9 9.4,34.4 5.8,32.1 2.3,34.4 2.3,30.9 "/>
<path class="st1" d="M17.4,68.3c-2.6-1.8-5-3.9-7.1-6.2V13h7.2L17.4,68.3z"/>
<rect x="31.8" y="2.3" class="st1" width="7.1" height="7.2"/>
<rect x="31.7" y="10.3" class="st1" width="7.2" height="1.8"/>
<polygon class="st1" points="43.4,14.2 39.8,16.6 39.8,20.1 43.4,17.8 46.9,20.1 46.9,16.6 "/>
<polygon class="st1" points="43.4,21.3 39.8,23.7 39.8,27.3 43.4,24.9 46.9,27.3 46.9,23.7 "/>
<polygon class="st1" points="43.4,28.5 39.8,30.9 39.8,34.4 43.4,32.1 46.9,34.4 46.9,30.9 "/>
<path class="st1" d="M31.8,68.3c2.6-1.8,5-3.9,7.1-6.2V13h-7.2L31.8,68.3z"/>
<polygon class="st1" points="24.6,19.7 21.9,17.8 18.4,20.1 18.4,16.6 21.9,14.2 24.6,16.2 27.3,14.2 30.8,16.6 30.8,20.1 
	27.3,17.8 "/>
<polygon class="st1" points="24.6,26.9 21.9,24.9 18.4,27.3 18.4,23.7 21.9,21.3 24.6,23.3 27.3,21.3 30.8,23.7 30.8,27.3 
	27.3,24.9 "/>
<polygon class="st1" points="24.6,34 21.9,32.1 18.4,34.4 18.4,30.9 21.9,28.5 24.6,30.5 27.3,28.5 30.8,30.9 30.8,34.4 27.3,32.1 
	"/>
<path class="st1" d="M74,26.1v8.3h-2.5V14.9h7.3c2.7,0,4.3,0,5.8,1.2c1.4,1.1,2.1,2.8,2,4.5c0.2,2.7-1.9,5.1-4.6,5.3l5.5,8.4h-3.1
	L79,26.1H74z M74,24h5.2c0.8,0,1.6,0,2.4-0.2c1.5-0.3,2.5-1.6,2.4-3.2c0-1-0.4-2-1.2-2.7c-1-0.8-2.3-0.8-3.8-0.8h-5L74,24z"/>
<path class="st1" d="M101,30.4c-0.7,2.6-3.1,4.5-5.9,4.4c-3.9,0-6.4-2.6-6.4-7c0-4.9,3.5-6.8,6.3-6.8c2.8,0,5.2,1.9,5.7,4.6
	c0.2,0.9,0.3,1.8,0.2,2.7h-9.9c-0.1,2.2,1.1,4.9,4.2,4.9c1.7,0,3.2-1.3,3.4-3L101,30.4z M98.6,26.7c-0.2-3.4-2.7-4-3.7-4
	c-1.9,0-3.4,1.4-3.7,4H98.6z"/>
<path class="st1" d="M113.8,21.4l-5.5,15.4c-0.9,2.6-1.6,4.1-4,4.1c-0.7,0-1.4-0.1-2-0.3v-2c0.5,0.1,0.9,0.2,1.4,0.2
	c1.6,0,2-0.9,2.6-2.7l0.6-1.6l-4.4-13.1h2.3l3.2,10.3l3.4-10.3L113.8,21.4z"/>
<path class="st1" d="M121.2,26.6l5.9,7.9h-2.8l-4.6-6.2l-1.6,1.7v4.6h-2.2V14.9h2.2v12l5.2-5.5h2.7L121.2,26.6z"/>
<path class="st1" d="M130.7,21.4v15.8c0.1,0.9-0.1,1.9-0.7,2.7c-0.6,0.6-1.5,0.9-2.4,0.8c-0.5,0-1,0-1.5-0.1v-2c0.3,0,0.7,0.1,1,0.1
	c1.4,0,1.4-0.9,1.4-2V21.4H130.7z M130.7,14.9v2.6h-2.1v-2.6H130.7z"/>
<path class="st1" d="M142,26.6v-0.3c0-1.3,0-3.6-2.9-3.6c-2.8,0-2.8,2-2.8,2.7l-2.3-0.1c0-0.7,0.2-1.4,0.5-2
	c0.9-1.6,2.7-2.5,4.5-2.3c1.4,0,2.7,0.4,3.8,1.1c1.4,1.2,1.4,2.7,1.4,4.4v4.2c0,1.2,0,1.9,0.9,1.9c0.2,0,0.5,0,0.7-0.1v1.9
	c-0.4,0.1-0.9,0.2-1.4,0.2c-1.1,0.1-2.1-0.6-2.2-1.7c0-0.1,0-0.1,0-0.2c-1.1,1.3-2.7,2.1-4.5,2.1c-2.5,0-4.4-1.5-4.4-3.7
	c0-0.7,0.2-1.4,0.6-2c0.7-1.1,2.1-2,6-2.3L142,26.6z M138.6,28.6c-2.4,0.5-2.8,1.4-2.8,2.3s0.8,1.9,2.5,1.9c1.5,0.1,2.8-0.7,3.4-2
	c0.3-0.7,0.4-1,0.4-2.9C141.2,28.2,140,28.3,138.6,28.6z"/>
<path class="st1" d="M155.7,21.4h2.3l-4.7,13h-2l-4.7-13h2.3l3.4,10L155.7,21.4z"/>
<path class="st1" d="M162.3,21.4v13h-2.1v-13H162.3z M163.9,16l-2.4,4h-1.1l1.1-4H163.9z"/>
<path class="st1" d="M171.1,26.6l5.9,7.9h-2.8l-4.6-6.2l-1.6,1.7v4.6h-2.2V14.9h2.2v12l5.2-5.5h2.7L171.1,26.6z"/>
<path class="st1" d="M178.5,21.4h2.2v7.4c-0.1,0.6-0.1,1.2,0,1.8c0.2,1.3,1.3,2.2,2.6,2c1.1,0,2.2-0.4,2.9-1.2
	c0.8-0.9,0.8-2,0.8-3.5v-6.5h2.2v13H187v-2c-1,1.5-2.7,2.3-4.4,2.3c-1.2,0.1-2.4-0.4-3.2-1.3c-0.9-1.1-0.9-2.2-0.9-4.4L178.5,21.4z"
	/>
<path class="st1" d="M195,21.4v2.4c0.9-1.6,2.6-2.6,4.5-2.5v2.4c-0.3,0-0.6,0-0.9,0c-1.2-0.1-2.3,0.5-3,1.5c-0.5,1-0.7,2.2-0.6,3.3
	v6h-2.2v-13L195,21.4z"/>
<path class="st1" d="M203.7,14.9v8.3c1-1.4,2.7-2.2,4.5-2.2c2.8,0,6,1.9,6,6.9c0,3.3-1.6,6.9-6,6.9c-1.7,0.1-3.4-0.7-4.5-2.1v1.7
	h-2.2V14.9H203.7z M207.8,32.9c3,0,4.1-2.7,4.1-5.1c0-3.2-1.9-4.8-4-4.8c-1.8,0-4.1,1.1-4.1,4.9C203.6,31.5,205.7,33,207.8,32.9
	L207.8,32.9z"/>
<path class="st1" d="M222.7,34.8c-4.5,0-6.4-3.4-6.4-6.8c0-2.9,1.4-7,6.5-7c4.3,0,6.3,3.3,6.3,6.9C229,31.8,226.7,34.8,222.7,34.8z
	 M226.5,26.1c-0.5-2.6-2.2-3.3-3.7-3.3c-2.9,0-4.1,2.3-4.1,5.3c0,2.7,1.1,5,4,5c3.7,0,3.9-3.8,4-5.1
	C226.7,27.3,226.6,26.7,226.5,26.1L226.5,26.1z"/>
<path class="st1" d="M234.1,21.4v2.4c0.9-1.7,2.6-2.6,4.5-2.5v2.4c-0.3,0-0.6,0-0.9,0c-1.2-0.1-2.3,0.5-3,1.5
	c-0.5,1-0.7,2.2-0.6,3.3v6h-2.2v-13L234.1,21.4z"/>
<path class="st1" d="M252.5,21.4v12.3c0.1,1.6-0.1,3.1-0.8,4.5c-1.2,1.7-3.2,2.7-5.2,2.5c-1.4,0-2.8-0.3-4-1.1
	c-1.2-0.9-1.9-2.3-2-3.8h2.5c0,1.5,0.9,3.1,3.6,3.1c1,0.1,2-0.3,2.8-0.9c0.8-0.8,0.8-1.8,0.8-4v-1.5c-1,1.4-2.6,2.3-4.3,2.3
	c-3.1,0-6-2.3-6-6.8c0-5.2,3.4-7,6-7c1.7,0,3.3,0.8,4.2,2.2v-1.7H252.5z M242.1,27.9c-0.1,1.2,0.3,2.4,0.9,3.4
	c0.7,1,1.9,1.6,3.2,1.5c1.3,0.1,2.5-0.6,3.2-1.7c0.6-1.1,0.9-2.3,0.9-3.5c0-4.4-3.3-4.7-4.2-4.7C243.8,23,242.1,24.9,242.1,27.9z"/>
</svg>
