<?xml version="1.0" encoding="utf-8"?>
<!-- Generator: Adobe Illustrator 22.1.0, SVG Export Plug-In . SVG Version: 6.00 Build 0)  -->
<svg version="1.1" id="Layer_1" xmlns="http://www.w3.org/2000/svg" xmlns:xlink="http://www.w3.org/1999/xlink" x="0px" y="0px"
	 viewBox="0 0 4799.7 315.1" style="enable-background:new 0 0 4799.7 315.1;" xml:space="preserve">
<style type="text/css">
	.st0{stroke:#000000;stroke-width:6;stroke-miterlimit:10;}
</style>
<title>logo</title>
<path d="M150.6,41.2H0V9.8h346v31.4H195.4v239.1h-44.8V41.2z"/>
<path d="M427.4,248.9H578V41.2H427.4V9.8h346v31.4H622.8v207.7h150.6v31.4h-346L427.4,248.9z"/>
<path d="M875.2,9.8H920L1151,230V9.8h44.8v270.5H1151L920,60.1v220.1h-44.8V9.8z"/>
<path d="M1406.9,186.9l-134.8-177h49.9l107.4,140.7L1536.7,9.8h49.9l-134.8,177v93.4h-44.8V186.9z"/>
<path d="M1645,306.4L1778.9,0l36.1,8.7l-133.8,306.4L1645,306.4z"/>
<path d="M1898.9,9.8h49.9l141.5,243.6h0.5L2232.2,9.8h49.9v270.5h-44.8V83.6l-113,196.7h-67.7l-113-196.7v196.7h-44.8L1898.9,9.8z"
	/>
<path d="M2511.1,9.8h66.1l152.6,270.5h-47.3l-45.3-81.3H2451l-45.3,81.3h-47.3L2511.1,9.8z M2620,167.6l-75.9-132.4l-75.8,132.4
	H2620z"/>
<path d="M2785.8,184.6h49.4c0,58.3,72.3,68.5,129.2,68.5c98.2,0,119.6-27.2,119.6-47.7c0-28.8-42.7-36.7-124.7-47.7
	c-90.6-12.1-158.2-21.9-158.2-75.3c0-56,74.3-78.7,158.8-78.7c92.6,0,167.9,30.6,167.9,108.2h-49.4c0-56.7-52.4-74.1-119.1-74.1
	c-57.5,0-109.4,11.3-109.4,42.7c0,29.1,45.8,33.3,115,42.4c114.5,15.1,167.9,31,167.9,81.7c0,48-48.3,81.3-162.8,81.3
	C2885.1,286,2785.8,265.9,2785.8,184.6z"/>
<path d="M3209.2,184.6h49.4c0,58.3,72.3,68.5,129.2,68.5c98.2,0,119.6-27.2,119.6-47.7c0-28.8-42.7-36.7-124.7-47.7
	c-90.6-12.1-158.2-21.9-158.2-75.3c0-56,74.3-78.7,158.8-78.7c92.6,0,167.9,30.6,167.9,108.2h-49.4c0-56.7-52.4-74.1-119.1-74.1
	c-57.5,0-109.4,11.3-109.4,42.7c0,29.1,45.8,33.3,115,42.4c114.5,15.1,167.9,31,167.9,81.7c0,48-48.3,81.3-162.8,81.3
	C3308.4,286,3209.2,265.9,3209.2,184.6z"/>
<path d="M3647.8,248.9h150.6V41.2h-150.6V9.8h346v31.4h-150.6v207.7h150.6v31.4h-346V248.9z"/>
<path d="M4070.1,9.8h51.4l125.7,243.6L4372.9,9.8h49.9l-142.5,270.5h-67.7L4070.1,9.8z"/>
<path class="st0" d="M4499,9.8h287.5v31.4h-242.7v84.4h227.5V157h-227.5v91.9h252.9v31.4H4499V9.8z"/>
</svg>
