<svg id="Layer_1" data-name="Layer 1" xmlns="http://www.w3.org/2000/svg" viewBox="0 0 181.06 123.07"><defs><style>.cls-1,.cls-2{fill:#fff;}.cls-2{fill-rule:evenodd;}</style></defs><title>logo-city-of-reykjavik-h</title><path class="cls-1" d="M2.54,108.37v8.28H0V97.17H7.23c2.7,0,4.3,0,5.82,1.19a5.39,5.39,0,0,1,2,4.5,5,5,0,0,1-4.61,5.35l5.46,8.44H12.85l-5.29-8.28Zm0-2.15H7.69a9.86,9.86,0,0,0,2.38-.19,3,3,0,0,0,2.43-3.15,3.48,3.48,0,0,0-1.16-2.73c-1-.85-2.29-.83-3.78-.83h-5Z"/><path class="cls-1" d="M29.57,112.65A5.89,5.89,0,0,1,23.69,117c-3.86,0-6.37-2.62-6.37-7,0-4.91,3.53-6.79,6.29-6.79a5.67,5.67,0,0,1,5.71,4.61,11.7,11.7,0,0,1,.25,2.65H19.69c-.05,2.18,1.11,4.88,4.2,4.88a3.43,3.43,0,0,0,3.44-3Zm-2.4-3.73c-.19-3.42-2.65-4-3.72-4-1.88,0-3.45,1.38-3.7,4Z"/><path class="cls-1" d="M42.34,103.66,36.88,119c-.94,2.62-1.57,4-4,4a6.76,6.76,0,0,1-2-.3v-2a4.67,4.67,0,0,0,1.4.22c1.6,0,2-.93,2.6-2.73l.55-1.57L31,103.66h2.35L36.6,114l3.45-10.31Z"/><path class="cls-1" d="M49.76,108.79l5.93,7.86H52.93l-4.66-6.24-1.57,1.66v4.58H44.46V97.17H46.7v12l5.18-5.51h2.71Z"/><path class="cls-1" d="M59.25,103.68v15.84a3.42,3.42,0,0,1-.72,2.64,3,3,0,0,1-2.4.8,13.35,13.35,0,0,1-1.46-.08v-2a7.3,7.3,0,0,0,1,.08c1.44,0,1.44-.88,1.44-2V103.68Zm0-6.51v2.57H57.1V97.17Z"/><path class="cls-1" d="M70.59,108.87v-.33c0-1.35,0-3.62-2.93-3.62-2.78,0-2.78,2-2.78,2.74l-2.32-.14a5,5,0,0,1,.52-2,4.77,4.77,0,0,1,4.5-2.32,6.55,6.55,0,0,1,3.81,1.11c1.43,1.15,1.4,2.64,1.4,4.38V113c0,1.24,0,1.88.94,1.88a1.92,1.92,0,0,0,.72-.14v1.9a5.28,5.28,0,0,1-1.38.22,2,2,0,0,1-2.26-1.93A5.88,5.88,0,0,1,66.34,117c-2.54,0-4.42-1.52-4.42-3.73a3.59,3.59,0,0,1,.58-2c.75-1.1,2.13-2,6-2.29Zm-3.4,2c-2.42.53-2.84,1.44-2.84,2.35s.83,1.93,2.46,1.93a3.55,3.55,0,0,0,3.44-2c.34-.72.36-1,.36-2.92C69.76,110.41,68.6,110.58,67.19,110.88Z"/><path class="cls-1" d="M84.32,103.66h2.26l-4.69,13h-2l-4.74-13h2.28l3.45,10Z"/><path class="cls-1" d="M90.86,103.66v13H88.74v-13Zm1.63-5.38-2.37,4H89l1.14-4Z"/><path class="cls-1" d="M99.72,108.79l5.92,7.86h-2.75l-4.66-6.24-1.58,1.66v4.58H94.42V97.17h2.23v12l5.19-5.51h2.7Z"/><path class="cls-1" d="M107.05,103.66h2.18v7.42a9.32,9.32,0,0,0,.06,1.79,2.32,2.32,0,0,0,2.59,2,3.68,3.68,0,0,0,2.92-1.24c.8-.94.8-2,.8-3.5v-6.51h2.18v13H115.6v-2a5.35,5.35,0,0,1-4.44,2.32,3.9,3.9,0,0,1-3.17-1.33c-.94-1.07-.94-2.2-.94-4.38Z"/><path class="cls-1" d="M123.63,103.66V106a4.73,4.73,0,0,1,4.47-2.54v2.37a8,8,0,0,0-.91,0,3.35,3.35,0,0,0-3,1.54,6.21,6.21,0,0,0-.55,3.29v6h-2.21v-13Z"/><path class="cls-1" d="M132.26,97.15v8.27a5.27,5.27,0,0,1,4.47-2.18c2.82,0,6,1.91,6,6.93,0,3.28-1.58,6.86-6,6.86a5.2,5.2,0,0,1-4.44-2.06v1.68h-2.2V97.15Zm4.06,18c3,0,4.05-2.68,4.05-5.13,0-3.2-1.85-4.8-4-4.8-1.8,0-4.11,1.07-4.14,4.91C132.21,113.78,134.25,115.19,136.32,115.19Z"/><path class="cls-1" d="M151.27,117c-4.5,0-6.4-3.36-6.4-6.78,0-2.9,1.43-7,6.48-7,4.3,0,6.29,3.34,6.26,6.9C157.59,114.08,155.24,117,151.27,117Zm3.81-8.71c-.5-2.57-2.18-3.31-3.67-3.31-2.95,0-4.14,2.29-4.14,5.27,0,2.73,1.13,5,4,5,3.67,0,3.95-3.81,4-5.13A7.6,7.6,0,0,0,155.08,108.32Z"/><path class="cls-1" d="M162.72,103.66V106a4.72,4.72,0,0,1,4.46-2.54v2.37a7.9,7.9,0,0,0-.91,0,3.33,3.33,0,0,0-3,1.54,6.21,6.21,0,0,0-.55,3.29v6h-2.21v-13Z"/><path class="cls-1" d="M181.06,103.66v12.27a8.8,8.8,0,0,1-.8,4.52,5.8,5.8,0,0,1-5.21,2.51,7.07,7.07,0,0,1-4-1.1,5.19,5.19,0,0,1-2-3.75h2.48c0,1.49.88,3.06,3.61,3.06a3.73,3.73,0,0,0,2.76-.94c.8-.85.83-1.82.83-4v-1.52a5.11,5.11,0,0,1-4.28,2.29c-3.14,0-6-2.29-6-6.81,0-5.24,3.39-7,6-7a5.38,5.38,0,0,1,4.25,2.15v-1.73Zm-10.32,6.48a5.8,5.8,0,0,0,.91,3.39,3.86,3.86,0,0,0,3.2,1.55,3.56,3.56,0,0,0,3.17-1.66,6.46,6.46,0,0,0,.86-3.47c0-4.42-3.28-4.72-4.17-4.72C172.34,105.26,170.74,107.13,170.74,110.14Z"/><path class="cls-1" d="M114,1.38V45c-1.14,12.51-12.33,23.59-23.29,28.65-11-5.06-22-16.14-23.16-28.65V1.38H114M115.34,0H66.13V45.09c1.22,13.42,13.27,24.84,24,29.77l.57.27.58-.27c10.74-5,22.86-16.4,24.09-29.77V0Z"/><rect class="cls-1" x="76.44" y="2.38" width="7.14" height="7.15"/><rect class="cls-1" x="76.44" y="10.42" width="7.18" height="1.77"/><polygon class="cls-2" points="71.98 14.28 75.56 16.67 75.56 20.22 71.98 17.89 68.44 20.24 68.44 16.67 71.98 14.28"/><polygon class="cls-2" points="71.98 21.43 75.56 23.82 75.56 27.36 71.98 25.03 68.44 27.38 68.44 23.82 71.98 21.43"/><polygon class="cls-2" points="71.98 28.57 75.56 30.96 75.56 34.51 71.98 32.18 68.44 34.52 68.44 30.96 71.98 28.57"/><path class="cls-2" d="M83.59,68.41a50.17,50.17,0,0,1-7.14-6.24V13.08h7.17Z"/><rect class="cls-1" x="97.9" y="2.38" width="7.15" height="7.15"/><rect class="cls-1" x="97.86" y="10.42" width="7.18" height="1.77"/><polygon class="cls-2" points="109.5 14.28 105.92 16.67 105.92 20.22 109.5 17.89 113.03 20.24 113.03 16.67 109.5 14.28"/><polygon class="cls-2" points="109.5 21.43 105.92 23.82 105.92 27.36 109.5 25.03 113.03 27.38 113.03 23.82 109.5 21.43"/><polygon class="cls-2" points="109.5 28.57 105.92 30.96 105.92 34.51 109.5 32.18 113.03 34.52 113.03 30.96 109.5 28.57"/><path class="cls-2" d="M97.89,68.41A50.17,50.17,0,0,0,105,62.17V13.08H97.86Z"/><polygon class="cls-2" points="90.72 19.81 88.05 17.89 84.51 20.24 84.51 16.67 88.05 14.28 90.7 16.25 93.43 14.28 96.97 16.67 96.97 20.24 93.43 17.89 90.72 19.81"/><polygon class="cls-2" points="90.72 26.96 88.05 25.04 84.51 27.38 84.51 23.83 88.05 21.43 90.7 23.4 93.43 21.43 96.97 23.83 96.97 27.38 93.43 25.04 90.72 26.96"/><polygon class="cls-2" points="90.72 34.11 88.05 32.18 84.51 34.52 84.51 30.97 88.05 28.57 90.7 30.55 93.43 28.57 96.97 30.97 96.97 34.52 93.43 32.18 90.72 34.11"/></svg>