<svg id="Layer_1" data-name="Layer 1" xmlns="http://www.w3.org/2000/svg" viewBox="0 0 4799.72 315.1"><defs><style>.cls-1,.cls-2{fill:#fff;}.cls-2{stroke:#fff;stroke-miterlimit:10;stroke-width:6px;}</style></defs><title>logo</title><path class="cls-1" d="M150.62,41.23H0V9.83H346v31.4H195.39V280.29H150.62Z"/><path class="cls-1" d="M427.42,248.9H578V41.23H427.42V9.83h346v31.4H622.81V248.9H773.43v31.39h-346Z"/><path class="cls-1" d="M875.19,9.83H920L1151,230V9.83h44.78V280.29H1151L920,60.14V280.29H875.19Z"/><path class="cls-1" d="M1406.91,186.86l-134.84-177h49.86L1429.3,150.55,1536.66,9.83h49.87l-134.84,177v93.43h-44.78Z"/><path class="cls-1" d="M1645,306.4,1778.86,0,1815,8.7,1681.16,315.1Z"/><path class="cls-1" d="M1898.94,9.83h49.86l141.46,243.61h.51L2232.23,9.83h49.86V280.29h-44.78V83.6l-113,196.69h-67.67l-113-196.69V280.29h-44.78Z"/><path class="cls-1" d="M2511.06,9.83h66.15l152.65,270.46h-47.32L2637.25,199H2451l-45.29,81.32h-47.32ZM2620,167.57,2544.13,35.18l-75.81,132.39Z"/><path class="cls-1" d="M2785.83,184.59h49.35c0,58.26,72.26,68.47,129.25,68.47,98.2,0,119.57-27.24,119.57-47.66,0-28.75-42.74-36.69-124.66-47.66-90.57-12.11-158.25-21.94-158.25-75.28,0-56,74.29-78.68,158.76-78.68,92.61,0,167.91,30.64,167.91,108.19h-49.35c0-56.74-52.41-74.14-119.07-74.14-57.5,0-109.4,11.34-109.4,42.74,0,29.13,45.8,33.29,115,42.37,114.48,15.13,167.91,31,167.91,81.7,0,48-48.34,81.33-162.82,81.33C2885.05,286,2785.83,265.92,2785.83,184.59Z"/><path class="cls-1" d="M3209.18,184.59h49.35c0,58.26,72.26,68.47,129.25,68.47,98.2,0,119.57-27.24,119.57-47.66,0-28.75-42.74-36.69-124.66-47.66-90.57-12.11-158.25-21.94-158.25-75.28,0-56,74.29-78.68,158.76-78.68,92.6,0,167.91,30.64,167.91,108.19h-49.35c0-56.74-52.41-74.14-119.07-74.14-57.5,0-109.4,11.34-109.4,42.74,0,29.13,45.79,33.29,115,42.37,114.48,15.13,167.91,31,167.91,81.7,0,48-48.34,81.33-162.83,81.33C3308.4,286,3209.18,265.92,3209.18,184.59Z"/><path class="cls-1" d="M3647.79,248.9H3798.4V41.23H3647.79V9.83h346v31.4H3843.18V248.9h150.61v31.39h-346Z"/><path class="cls-1" d="M4070.11,9.83h51.39l125.69,243.61L4372.87,9.83h49.86L4280.26,280.29h-67.67Z"/><path class="cls-2" d="M4499.05,9.83h287.49v31.4H4543.83v84.35h227.45V157H4543.83V248.9h252.89v31.39H4499.05Z"/></svg>