<svg id="Layer_1" data-name="Layer 1" xmlns="http://www.w3.org/2000/svg" viewBox="0 0 252.47 75.13"><defs><style>.cls-1,.cls-3,.cls-4{fill:#fff;}.cls-1{stroke:#fff;stroke-miterlimit:3.86;stroke-width:2.76px;}.cls-2,.cls-4{fill-rule:evenodd;}</style></defs><title>city-of-reykjavik</title><path class="cls-1" d="M40,27.73H63.14V71.32C62,83.83,50.8,94.9,39.85,100c-11-5.07-22-16.14-23.16-28.65V27.73Z" transform="translate(-15.31 -26.36)"/><path class="cls-2" d="M40,27.73H63.14V71.32C62,83.83,50.8,94.9,39.85,100c-11-5.07-22-16.14-23.16-28.65V27.73Z" transform="translate(-15.31 -26.36)"/><rect class="cls-3" x="10.3" y="2.29" width="7.14" height="7.15"/><rect class="cls-3" x="10.3" y="10.33" width="7.18" height="1.77"/><polygon class="cls-4" points="5.84 14.19 9.42 16.58 9.42 20.13 5.84 17.8 2.3 20.15 2.3 16.58 5.84 14.19"/><polygon class="cls-4" points="5.84 21.34 9.42 23.73 9.42 27.27 5.84 24.94 2.3 27.29 2.3 23.73 5.84 21.34"/><polygon class="cls-4" points="5.84 28.48 9.42 30.87 9.42 34.42 5.84 32.09 2.3 34.43 2.3 30.87 5.84 28.48"/><path class="cls-4" d="M32.76,94.67a50.17,50.17,0,0,1-7.14-6.24V39.35h7.17Z" transform="translate(-15.31 -26.36)"/><rect class="cls-3" x="31.76" y="2.29" width="7.15" height="7.15"/><rect class="cls-3" x="31.72" y="10.33" width="7.18" height="1.77"/><polygon class="cls-4" points="43.36 14.19 39.79 16.58 39.79 20.13 43.36 17.8 46.9 20.15 46.9 16.58 43.36 14.19"/><polygon class="cls-4" points="43.36 21.34 39.79 23.73 39.79 27.27 43.36 24.94 46.9 27.29 46.9 23.73 43.36 21.34"/><polygon class="cls-4" points="43.36 28.48 39.79 30.87 39.79 34.42 43.36 32.09 46.9 34.43 46.9 30.87 43.36 28.48"/><path class="cls-4" d="M47.06,94.67a50.17,50.17,0,0,0,7.14-6.24V39.35H47Z" transform="translate(-15.31 -26.36)"/><polygon class="cls-4" points="24.59 19.72 21.91 17.8 18.37 20.15 18.37 16.58 21.91 14.19 24.57 16.16 27.29 14.19 30.83 16.58 30.83 20.15 27.29 17.8 24.59 19.72"/><polygon class="cls-4" points="24.59 26.87 21.91 24.95 18.37 27.29 18.37 23.74 21.91 21.34 24.57 23.31 27.29 21.34 30.83 23.74 30.83 27.29 27.29 24.95 24.59 26.87"/><polygon class="cls-4" points="24.59 34.02 21.91 32.09 18.37 34.43 18.37 30.88 21.91 28.48 24.57 30.46 27.29 28.48 30.83 30.88 30.83 34.43 27.29 32.09 24.59 34.02"/><path d="M89.26,52.5v8.28H86.72V41.31H94c2.7,0,4.3,0,5.82,1.18a5.4,5.4,0,0,1,2,4.5,5,5,0,0,1-4.61,5.35l5.46,8.44H99.58l-5.3-8.28Zm0-2.15h5.16a9.78,9.78,0,0,0,2.37-.19A3,3,0,0,0,99.22,47a3.5,3.5,0,0,0-1.16-2.74c-1-.85-2.29-.82-3.78-.82h-5Z" transform="translate(-15.31 -26.36)"/><path d="M116.29,56.78a5.88,5.88,0,0,1-5.87,4.38c-3.87,0-6.38-2.62-6.38-7,0-4.91,3.53-6.79,6.29-6.79A5.67,5.67,0,0,1,116,52a11.7,11.7,0,0,1,.25,2.65h-9.87c-.06,2.18,1.1,4.88,4.19,4.88a3.45,3.45,0,0,0,3.45-3Zm-2.4-3.72c-.19-3.42-2.65-4-3.72-4-1.88,0-3.45,1.38-3.7,4Z" transform="translate(-15.31 -26.36)"/><path d="M129.06,47.79,123.6,63.15c-.94,2.62-1.57,4.06-4,4.06a6.77,6.77,0,0,1-2-.31v-2a4.67,4.67,0,0,0,1.4.22c1.6,0,2-.93,2.6-2.73l.55-1.57-4.41-13.07h2.34l3.25,10.31,3.45-10.31Z" transform="translate(-15.31 -26.36)"/><path d="M136.48,52.92l5.93,7.86h-2.76L135,54.55l-1.57,1.65v4.58h-2.23V41.31h2.23v12l5.19-5.51h2.7Z" transform="translate(-15.31 -26.36)"/><path d="M146,47.81V63.65a3.45,3.45,0,0,1-.72,2.65,3.05,3.05,0,0,1-2.4.8,12.89,12.89,0,0,1-1.46-.09V65a7.3,7.3,0,0,0,1,.08c1.44,0,1.44-.88,1.44-2V47.81Zm0-6.5v2.56h-2.15V41.31Z" transform="translate(-15.31 -26.36)"/><path d="M157.31,53v-.33c0-1.35,0-3.61-2.93-3.61-2.78,0-2.78,2-2.78,2.73l-2.32-.14a5.05,5.05,0,0,1,.53-2,4.74,4.74,0,0,1,4.49-2.32,6.52,6.52,0,0,1,3.81,1.11c1.43,1.16,1.4,2.65,1.4,4.38v4.22c0,1.24,0,1.88.94,1.88a1.88,1.88,0,0,0,.72-.14v1.9a4.89,4.89,0,0,1-1.38.22A2,2,0,0,1,157.53,59a5.86,5.86,0,0,1-4.47,2.13c-2.54,0-4.41-1.52-4.41-3.73a3.48,3.48,0,0,1,.58-1.95c.74-1.11,2.12-2,6-2.29Zm-3.4,2c-2.42.53-2.84,1.44-2.84,2.35s.83,1.93,2.46,1.93a3.56,3.56,0,0,0,3.45-2c.33-.72.35-1,.35-2.92C156.48,54.55,155.32,54.71,153.91,55Z" transform="translate(-15.31 -26.36)"/><path d="M171,47.79h2.27l-4.69,13h-2l-4.74-13h2.29l3.44,10Z" transform="translate(-15.31 -26.36)"/><path d="M177.58,47.79v13h-2.12v-13Zm1.63-5.38-2.37,4h-1.13l1.13-4Z" transform="translate(-15.31 -26.36)"/><path d="M186.44,52.92l5.93,7.86h-2.76L185,54.55l-1.57,1.65v4.58h-2.24V41.31h2.24v12l5.18-5.51h2.7Z" transform="translate(-15.31 -26.36)"/><path d="M193.77,47.79H196v7.42A9.32,9.32,0,0,0,196,57a2.32,2.32,0,0,0,2.59,2,3.68,3.68,0,0,0,2.92-1.24c.81-.94.81-2,.81-3.5V47.79h2.17v13h-2.17v-2a5.38,5.38,0,0,1-4.45,2.32,3.94,3.94,0,0,1-3.17-1.32c-.94-1.08-.94-2.21-.94-4.39Z" transform="translate(-15.31 -26.36)"/><path d="M210.35,47.79v2.37a4.75,4.75,0,0,1,4.47-2.54V50c-.28,0-.55-.05-.91-.05a3.37,3.37,0,0,0-3,1.54,6.21,6.21,0,0,0-.55,3.29v6h-2.2v-13Z" transform="translate(-15.31 -26.36)"/><path d="M219,41.28v8.27a5.27,5.27,0,0,1,4.47-2.18c2.82,0,6,1.91,6,6.93,0,3.28-1.57,6.86-6,6.86A5.24,5.24,0,0,1,219,59.1v1.68h-2.2V41.28Zm4.06,18c3,0,4.06-2.68,4.06-5.13,0-3.2-1.85-4.8-4-4.8-1.8,0-4.11,1.07-4.14,4.91C218.93,57.91,221,59.32,223,59.32Z" transform="translate(-15.31 -26.36)"/><path d="M238,61.16c-4.5,0-6.4-3.36-6.4-6.78,0-2.9,1.44-7,6.48-7,4.31,0,6.29,3.34,6.26,6.9C244.31,58.21,242,61.16,238,61.16Zm3.81-8.71c-.5-2.57-2.18-3.31-3.67-3.31-2.95,0-4.14,2.29-4.14,5.27,0,2.73,1.13,5,4,5,3.67,0,3.95-3.81,4-5.13A8.09,8.09,0,0,0,241.8,52.45Z" transform="translate(-15.31 -26.36)"/><path d="M249.44,47.79v2.37a4.74,4.74,0,0,1,4.47-2.54V50c-.28,0-.56-.05-.91-.05a3.36,3.36,0,0,0-3,1.54,6.21,6.21,0,0,0-.55,3.29v6h-2.21v-13Z" transform="translate(-15.31 -26.36)"/><path d="M267.78,47.79V60.06a8.84,8.84,0,0,1-.8,4.53,5.81,5.81,0,0,1-5.21,2.51,7,7,0,0,1-4-1.11,5.15,5.15,0,0,1-2-3.75h2.48c0,1.49.88,3.06,3.61,3.06a3.69,3.69,0,0,0,2.76-.94c.8-.85.83-1.82.83-4V58.88a5.11,5.11,0,0,1-4.27,2.28c-3.15,0-6-2.28-6-6.81,0-5.24,3.4-7,6-7a5.35,5.35,0,0,1,4.25,2.16V47.79Zm-10.32,6.48a5.8,5.8,0,0,0,.91,3.39,3.84,3.84,0,0,0,3.2,1.55,3.58,3.58,0,0,0,3.18-1.66,6.53,6.53,0,0,0,.85-3.47c0-4.42-3.28-4.72-4.16-4.72C259.06,49.39,257.46,51.26,257.46,54.27Z" transform="translate(-15.31 -26.36)"/></svg>