<svg id="Layer_1" data-name="Layer 1" xmlns="http://www.w3.org/2000/svg" viewBox="0 0 468.25 189.55"><defs><style>.cls-1{fill:#231f20;}</style></defs><title>harpa</title><polygon class="cls-1" points="265.96 71.71 265.96 95.31 233.9 95.31 233.9 71.71 229.53 71.71 229.53 72 229.53 123.29 233.9 123.29 233.9 99.39 265.96 99.39 265.96 123.29 270.33 123.29 270.33 71.71 265.96 71.71"/><path class="cls-1" d="M338.08,75.79H355.2c9.17,0,14.34,4.19,14.35,10.85v.15c0,7.15-6.13,11.35-14.57,11.36h-16.9Zm21.15,25.64c8.43-1.28,14.7-6.26,14.69-14.79V86.5A13.74,13.74,0,0,0,370,76.82c-3.13-3.12-8.24-5.11-14.56-5.11H333.7v51.58h4.38V102.16h16.25l16.24,21.13h5.55Z"/><path class="cls-1" d="M417.12,87.81V88c0,7.39-6.21,12.22-15.59,12.24h-13.7V75.79H402c9.11,0,15.14,4.12,15.15,12m-14.86-16.1h-18.8v51.58h4.38v-19h13.47c10.72,0,20.16-5.63,20.18-16.54v-.15c0-10-7.92-15.87-19.23-15.88"/><path class="cls-1" d="M290.49,101.55l11.45-25.06,11.39,25.06ZM304,71.34h-4l-24,52h4.58l6.56-14.45,1.56-3.34h26.44l1.56,3.34,6.56,14.45h4.8Z"/><path class="cls-1" d="M430.7,101.55l11.44-25.06,11.39,25.06Zm13.53-30.21h-4l-24,52h4.58l6.56-14.45,1.56-3.34h26.44l1.56,3.34,6.56,14.45h4.8Z"/><path class="cls-1" d="M11,139.14l42.27-24.41c2.57-1.48,4.15-.25,5,1.18s1.12,3.44-1.45,4.92l-42.27,24.4L16.06,148l42.06-24.28c3.48-2,4.69-4.64,3.74-7.66l13.62-7.86a3.26,3.26,0,1,0-1.89-3.28l-13.65,7.88c-2.27-2.53-5-2.67-8.61-.6l-42,24.22Z"/><path class="cls-1" d="M44.36,175.1l24.41-42.27c1.48-2.56,3.47-2.29,4.89-1.46s2.68,2.42,1.2,5l-24.4,42.26,2.75,1.59,24.28-42.07c2-3.47,1.74-6.36-.59-8.5L84.76,116a3.27,3.27,0,1,0-3.27-1.9l-7.88,13.64c-3.23-1-5.7.21-7.76,3.79l-24.23,42Z"/><path class="cls-1" d="M91.28,189.55V140.74c0-3,1.86-3.71,3.51-3.71s3.53.75,3.53,3.71v48.81h3.17V141c0-4-1.68-6.38-4.76-7.07V118.18a3.26,3.26,0,1,0-3.79,0v15.75c-3.32.72-4.83,3-4.83,7.16v48.46Z"/><path class="cls-1" d="M139.14,178.6l-24.4-42.26c-1.48-2.57-.25-4.15,1.17-5s3.44-1.11,4.92,1.45l24.4,42.27L148,173.5l-24.29-42.07c-2-3.47-4.64-4.69-7.65-3.73l-7.87-13.62a3.25,3.25,0,1,0-5.78.27,3.2,3.2,0,0,0,2.5,1.61l7.88,13.65c-2.52,2.28-2.66,5-.6,8.62l24.23,42Z"/><path class="cls-1" d="M175.11,145.19l-42.26-24.4c-2.57-1.48-2.3-3.47-1.48-4.9s2.43-2.68,5-1.19l42.27,24.39,1.58-2.74-42.06-24.28c-3.48-2-6.37-1.74-8.5.59L116,104.8a3.22,3.22,0,0,0-1.61-2.51,3.26,3.26,0,1,0-3.26,5.64,3.22,3.22,0,0,0,3,.14L127.78,116c-1,3.23.21,5.7,3.78,7.76l42,24.23Z"/><path class="cls-1" d="M189.55,98.28h-48.8c-3,0-3.72-1.86-3.72-3.51s.75-3.54,3.72-3.54h48.8V88.07H141c-4,0-6.38,1.67-7.06,4.76H118.19a3.26,3.26,0,1,0,0,3.79h15.75c.71,3.32,3,4.82,7.15,4.82h48.46Z"/><path class="cls-1" d="M178.6,50.42l-42.26,24.4c-2.57,1.48-4.15.25-5-1.17s-1.11-3.44,1.46-4.92l42.27-24.41-1.59-2.74L131.44,65.86c-3.49,2-4.69,4.65-3.74,7.66l-13.62,7.87A3.26,3.26,0,1,0,116,84.67l13.65-7.88c2.27,2.52,5,2.66,8.61.6l42-24.23Z"/><path class="cls-1" d="M145.19,14.44l-24.4,42.27c-1.48,2.58-3.46,2.3-4.9,1.47s-2.68-2.42-1.2-5L139.1,10.93l-2.74-1.58L112.07,51.41c-2,3.48-1.74,6.36.59,8.49L104.8,73.53a3.25,3.25,0,1,0,3.28,1.9L116,61.78c3.23,1,5.7-.21,7.76-3.79L147.94,16Z"/><path class="cls-1" d="M98.28,0V48.81c0,3-1.86,3.72-3.51,3.72s-3.54-.76-3.54-3.72V0H88.07V48.58c0,4,1.67,6.38,4.76,7.06V71.37A3.23,3.23,0,0,0,91.46,74a3.26,3.26,0,1,0,5.16-2.64V55.62c3.32-.72,4.82-3,4.82-7.16V0Z"/><path class="cls-1" d="M50.42,11l24.4,42.27c1.49,2.57.26,4.15-1.17,5s-3.44,1.11-4.93-1.46L44.33,14.47l-2.75,1.59L65.87,58.12c2,3.48,4.64,4.69,7.65,3.73l7.87,13.63a3.26,3.26,0,1,0,3.28-1.89L76.79,59.94c2.52-2.27,2.67-5,.6-8.61l-24.23-42Z"/><path class="cls-1" d="M14.45,44.36l42.27,24.4c2.57,1.49,2.29,3.47,1.47,4.91s-2.42,2.67-5,1.19L10.93,50.45,9.34,53.2,51.41,77.49c3.48,2,6.36,1.74,8.5-.59l13.62,7.86a3.25,3.25,0,1,0,1.9-3.28L61.78,73.6c1-3.23-.22-5.69-3.78-7.75L16,41.62Z"/><path class="cls-1" d="M0,91.28h48.8c3,0,3.72,1.86,3.72,3.51s-.76,3.53-3.72,3.53H0v3.17H48.57c4,0,6.39-1.68,7.07-4.76H71.37a3.26,3.26,0,1,0,0-3.79H55.62c-.72-3.32-3-4.83-7.16-4.83H0Z"/></svg>