<svg id="Layer_1" data-name="Layer 1" xmlns="http://www.w3.org/2000/svg" viewBox="0 0 310.14 426.92"><defs><style>.cls-1{fill:#fff;}</style></defs><title>logo-harpa-h</title><polygon class="cls-1" points="47.33 359.89 47.33 390.56 5.68 390.56 5.68 359.89 0 359.89 0 360.27 0 426.91 5.68 426.91 5.68 395.86 47.33 395.86 47.33 426.91 52.99 426.91 52.99 359.89 47.33 359.89"/><path class="cls-1" d="M-93.95,336.05H-71.7c11.92,0,18.63,5.45,18.65,14.11v.19c0,9.3-8,14.74-18.93,14.76h-22Zm27.49,33.32c10.95-1.66,19.1-8.13,19.08-19.21V350a17.85,17.85,0,0,0-5.12-12.58c-4.06-4.06-10.7-6.63-18.92-6.64H-99.63v67h5.68V370.32h21.12l21.11,27.45h7.2Z" transform="translate(234.96 29.14)"/><path class="cls-1" d="M8.76,351.67v.19c0,9.59-8.07,15.88-20.26,15.89H-29.3v-31.7h18.36c11.84,0,19.68,5.36,19.7,15.62m-19.32-20.92H-35v67h5.69V373.06h17.51c13.93,0,26.19-7.3,26.21-21.48v-.19c0-13-10.29-20.62-25-20.64" transform="translate(234.96 29.14)"/><path class="cls-1" d="M-155.76,369.53-140.89,337l14.79,32.56Zm17.57-39.25h-5.21l-31.22,67.49h6l8.54-18.77,2-4.34h34.34l2,4.34,8.53,18.77H-107Z" transform="translate(234.96 29.14)"/><path class="cls-1" d="M26.39,369.53,41.26,337l14.79,32.56ZM44,330.28H38.75L7.54,397.77h6L22,379l2-4.34H58.4l2,4.34,8.52,18.77h6.24Z" transform="translate(234.96 29.14)"/><path class="cls-1" d="M-214.94,195l68.1-39.32c4.13-2.38,6.69-.41,8,1.91s1.79,5.53-2.34,7.92l-68.11,39.3,2.56,4.43,67.77-39.13c5.62-3.23,7.56-7.47,6-12.33L-111,145.13a5.29,5.29,0,0,0,4.8-.23,5.25,5.25,0,0,0,1.92-7.17,5.25,5.25,0,0,0-7.18-1.92,5.22,5.22,0,0,0-2.58,4l-22,12.69c-3.66-4.06-8.12-4.3-13.88-1l-67.59,39Z" transform="translate(234.96 29.14)"/><path class="cls-1" d="M-161.12,253l39.32-68.1c2.38-4.13,5.59-3.69,7.89-2.37s4.32,3.91,1.93,8l-39.32,68.09,4.43,2.55,39.13-67.77c3.22-5.6,2.79-10.24-1-13.69L-96,157.79a5.29,5.29,0,0,0,4-2.6A5.27,5.27,0,0,0-93.9,148a5.28,5.28,0,0,0-7.18,1.92,5.24,5.24,0,0,0-.23,4.79l-12.7,22c-5.2-1.69-9.17.33-12.48,6.09l-39,67.61Z" transform="translate(234.96 29.14)"/><path class="cls-1" d="M-85.53,276.23V197.6c0-4.77,3-6,5.66-6s5.68,1.22,5.68,6v78.63h5.1V198c0-6.48-2.69-10.28-7.67-11.38V161.26A5.22,5.22,0,0,0-74.55,157a5.26,5.26,0,0,0-5.26-5.25A5.23,5.23,0,0,0-85,157a5.25,5.25,0,0,0,2.18,4.26v25.37c-5.35,1.16-7.77,4.89-7.77,11.54v78.06Z" transform="translate(234.96 29.14)"/><path class="cls-1" d="M-8.42,258.59-47.73,190.5c-2.38-4.14-.4-6.68,1.89-8s5.54-1.79,7.92,2.34l39.31,68.1,4.44-2.55L-33.3,182.61c-3.25-5.61-7.49-7.56-12.34-6l-12.68-21.94a5.26,5.26,0,0,0-.22-4.8,5.27,5.27,0,0,0-7.18-1.92,5.25,5.25,0,0,0-1.92,7.16,5.2,5.2,0,0,0,4,2.6l12.69,22c-4.06,3.67-4.29,8.12-1,13.87l39.05,67.6Z" transform="translate(234.96 29.14)"/><path class="cls-1" d="M49.53,204.76l-68.1-39.3c-4.13-2.39-3.68-5.59-2.36-7.89s3.9-4.32,8-1.92L55.2,195l2.55-4.42L-10,151.4c-5.61-3.23-10.27-2.79-13.7,1L-45.66,139.7a5.24,5.24,0,0,0-2.59-4.06,5.28,5.28,0,0,0-7.19,1.93,5.26,5.26,0,0,0,1.93,7.17,5.23,5.23,0,0,0,4.8.22l22,12.69c-1.68,5.22.35,9.19,6.1,12.5l67.6,39Z" transform="translate(234.96 29.14)"/><path class="cls-1" d="M72.79,129.19H-5.83c-4.77,0-6-3-6-5.66s1.22-5.69,6-5.69H72.79v-5.1H-5.45c-6.48,0-10.29,2.7-11.38,7.67H-42.16a5.27,5.27,0,0,0-4.27-2.2,5.28,5.28,0,0,0-5.28,5.25,5.26,5.26,0,0,0,5.26,5.25,5.23,5.23,0,0,0,4.27-2.2H-16.8c1.16,5.35,4.89,7.77,11.53,7.77H72.79Z" transform="translate(234.96 29.14)"/><path class="cls-1" d="M55.16,52.08-12.93,91.4c-4.14,2.39-6.68.4-8-1.9S-22.74,84-18.6,81.58L49.49,42.26l-2.55-4.41L-20.82,77c-5.62,3.23-7.55,7.48-6,12.34L-48.79,102a5.25,5.25,0,0,0-4.81.22,5.23,5.23,0,0,0-1.92,7.17,5.26,5.26,0,0,0,7.18,1.92,5.2,5.2,0,0,0,2.59-4l22-12.7c3.65,4.06,8.13,4.29,13.87,1l67.61-39Z" transform="translate(234.96 29.14)"/><path class="cls-1" d="M1.33-5.87-38,62.23c-2.38,4.14-5.58,3.69-7.9,2.36s-4.31-3.89-1.92-8L-8.48-11.53l-4.42-2.56L-52,53.69c-3.24,5.6-2.8,10.24,1,13.68L-63.76,89.32a5.26,5.26,0,0,0-4.05,2.6,5.26,5.26,0,0,0,1.94,7.17,5.22,5.22,0,0,0,7.15-1.93,5.17,5.17,0,0,0,.24-4.78l12.71-22c5.21,1.68,9.17-.35,12.5-6.1L5.75-3.3Z" transform="translate(234.96 29.14)"/><path class="cls-1" d="M-74.27-29.14V49.49c0,4.78-3,6-5.64,6s-5.7-1.22-5.7-6V-29.14H-90.7V49.12C-90.7,55.6-88,59.4-83,60.5V85.83a5.25,5.25,0,0,0-2.22,4.27A5.26,5.26,0,0,0-80,95.36a5.26,5.26,0,0,0,5.25-5.26,5.22,5.22,0,0,0-2.2-4.26V60.46c5.36-1.15,7.78-4.89,7.78-11.53V-29.14Z" transform="translate(234.96 29.14)"/><path class="cls-1" d="M-151.35-11.49-112,56.6c2.38,4.13.41,6.68-1.9,8s-5.52,1.78-7.93-2.36L-161.16-5.82l-4.42,2.54,39.11,67.78c3.24,5.6,7.47,7.54,12.34,6l12.66,21.95a5.27,5.27,0,0,0,.23,4.8,5.27,5.27,0,0,0,7.18,1.92A5.24,5.24,0,0,0-92.15,92a5.18,5.18,0,0,0-4-2.59l-12.7-22c4.06-3.67,4.29-8.12,1-13.87l-39-67.6Z" transform="translate(234.96 29.14)"/><path class="cls-1" d="M-209.31,42.32l68.1,39.32c4.14,2.4,3.69,5.59,2.37,7.9s-3.9,4.31-8,1.92L-215,52.14l-2.55,4.43,67.77,39.12c5.61,3.24,10.25,2.81,13.7-.94l21.94,12.65a5.25,5.25,0,0,0,2.6,4.06,5.25,5.25,0,0,0,7.16-1.92,5.26,5.26,0,0,0-1.9-7.18,5.29,5.29,0,0,0-4.81-.23l-22-12.69c1.68-5.21-.35-9.18-6.08-12.5l-67.62-39Z" transform="translate(234.96 29.14)"/><path class="cls-1" d="M-232.57,117.91h78.62c4.77,0,6,3,6,5.66s-1.24,5.68-6,5.68h-78.61v5.11h78.24c6.48,0,10.28-2.7,11.38-7.67h25.35a5.24,5.24,0,0,0,4.27,2.2,5.26,5.26,0,0,0,5.26-5.25,5.28,5.28,0,0,0-5.26-5.24,5.26,5.26,0,0,0-4.27,2.18H-143c-1.16-5.35-4.9-7.77-11.55-7.77h-78.06Z" transform="translate(234.96 29.14)"/></svg>