<?xml version="1.0" encoding="utf-8"?>
<!-- Generator: Adobe Illustrator 22.1.0, SVG Export Plug-In . SVG Version: 6.00 Build 0)  -->
<svg version="1.1" id="Layer_1" xmlns="http://www.w3.org/2000/svg" xmlns:xlink="http://www.w3.org/1999/xlink" x="0px" y="0px"
	 viewBox="0 0 468.2 189.6" style="enable-background:new 0 0 468.2 189.6;" xml:space="preserve">
<style type="text/css">
	.st0{fill:#DCE0DF;}
</style>
<title>harpa</title>
<polygon class="st0" points="266,71.7 266,95.3 233.9,95.3 233.9,71.7 229.5,71.7 229.5,72 229.5,123.3 233.9,123.3 233.9,99.4 
	266,99.4 266,123.3 270.3,123.3 270.3,71.7 "/>
<path class="st0" d="M338.1,75.8h17.1c9.2,0,14.3,4.2,14.4,10.8v0.2c0,7.2-6.1,11.3-14.6,11.4h-16.9L338.1,75.8z M359.2,101.4
	c8.4-1.3,14.7-6.3,14.7-14.8v-0.1c0-3.6-1.4-7.1-3.9-9.7c-3.1-3.1-8.2-5.1-14.6-5.1h-21.7v51.6h4.4v-21.1h16.2l16.2,21.1h5.5
	L359.2,101.4z"/>
<path class="st0" d="M417.1,87.8V88c0,7.4-6.2,12.2-15.6,12.2h-13.7V75.8H402C411.1,75.8,417.1,79.9,417.1,87.8 M402.3,71.7h-18.8
	v51.6h4.4v-19h13.5c10.7,0,20.2-5.6,20.2-16.5v-0.2C421.5,77.6,413.6,71.7,402.3,71.7"/>
<path class="st0" d="M290.5,101.5l11.5-25.1l11.4,25.1H290.5z M304,71.3h-4l-24,52h4.6l6.6-14.4l1.6-3.3h26.4l1.6,3.3l6.6,14.4h4.8
	L304,71.3z"/>
<path class="st0" d="M430.7,101.5l11.4-25.1l11.4,25.1H430.7z M444.2,71.3h-4l-24,52h4.6l6.6-14.4l1.6-3.3h26.4l1.6,3.3l6.6,14.4
	h4.8L444.2,71.3z"/>
<path class="st0" d="M11,139.1l42.3-24.4c2.6-1.5,4.2-0.2,5,1.2s1.1,3.4-1.5,4.9l-42.3,24.4l1.5,2.8l42.1-24.3
	c3.5-2,4.7-4.6,3.7-7.7l13.6-7.9c1.6,0.7,3.6,0,4.3-1.6s0-3.6-1.6-4.3s-3.6,0-4.3,1.6c-0.2,0.3-0.2,0.7-0.3,1l-13.7,7.9
	c-2.3-2.5-5-2.7-8.6-0.6l-42,24.2L11,139.1z"/>
<path class="st0" d="M44.4,175.1l24.4-42.3c1.5-2.6,3.5-2.3,4.9-1.5s2.7,2.4,1.2,5l-24.4,42.3l2.8,1.6l24.3-42.1
	c2-3.5,1.7-6.4-0.6-8.5l7.9-13.6c1.8-0.2,3.1-1.8,3-3.6s-1.8-3.1-3.6-3s-3.1,1.8-3,3.6c0,0.4,0.1,0.7,0.3,1.1l-7.9,13.6
	c-3.2-1-5.7,0.2-7.8,3.8l-24.2,42L44.4,175.1z"/>
<path class="st0" d="M91.3,189.5v-48.8c0-3,1.9-3.7,3.5-3.7s3.5,0.8,3.5,3.7v48.8h3.2V141c0-4-1.7-6.4-4.8-7.1v-15.7
	c1.5-1,1.8-3.1,0.8-4.5s-3.1-1.8-4.5-0.8c-1.5,1-1.8,3.1-0.8,4.5c0.2,0.3,0.5,0.5,0.8,0.8v15.7c-3.3,0.7-4.8,3-4.8,7.2v48.5
	L91.3,189.5z"/>
<path class="st0" d="M139.1,178.6l-24.4-42.3c-1.5-2.6-0.2-4.1,1.2-5s3.4-1.1,4.9,1.4l24.4,42.3l2.8-1.6l-24.3-42.1
	c-2-3.5-4.6-4.7-7.7-3.7l-7.9-13.6c0.7-1.6,0-3.6-1.6-4.3c-1.6-0.7-3.6,0-4.3,1.6c-0.4,1-0.4,2.1,0.1,3c0.5,0.9,1.5,1.5,2.5,1.6
	l7.9,13.7c-2.5,2.3-2.7,5-0.6,8.6l24.2,42L139.1,178.6z"/>
<path class="st0" d="M175.1,145.2l-42.3-24.4c-2.6-1.5-2.3-3.5-1.5-4.9s2.4-2.7,5-1.2l42.3,24.4l1.6-2.7l-42.1-24.3
	c-3.5-2-6.4-1.7-8.5,0.6l-13.7-7.9c-0.1-1-0.7-2-1.6-2.5c-1.5-1-3.5-0.5-4.5,1c-1,1.5-0.5,3.5,1,4.5c0.1,0,0.2,0.1,0.2,0.1
	c0.9,0.5,2,0.6,3,0.1l13.7,7.9c-1,3.2,0.2,5.7,3.8,7.8l42,24.2L175.1,145.2z"/>
<path class="st0" d="M189.6,98.3h-48.8c-3,0-3.7-1.9-3.7-3.5s0.8-3.5,3.7-3.5h48.8v-3.2H141c-4,0-6.4,1.7-7.1,4.8h-15.8
	c-1-1.5-3.1-1.8-4.5-0.8s-1.8,3.1-0.8,4.5c1,1.5,3.1,1.8,4.5,0.8c0.3-0.2,0.5-0.5,0.8-0.8h15.8c0.7,3.3,3,4.8,7.1,4.8h48.5
	L189.6,98.3z"/>
<path class="st0" d="M178.6,50.4l-42.3,24.4c-2.6,1.5-4.1,0.2-5-1.2s-1.1-3.4,1.5-4.9l42.3-24.4l-1.6-2.7l-42,24.3
	c-3.5,2-4.7,4.7-3.7,7.7l-13.6,7.9c-1.6-0.7-3.6,0-4.3,1.7s0,3.6,1.7,4.3s3.6,0,4.3-1.7c0.1-0.3,0.2-0.7,0.3-1l13.6-7.9
	c2.3,2.5,5,2.7,8.6,0.6l42-24.2L178.6,50.4z"/>
<path class="st0" d="M145.2,14.4l-24.4,42.3c-1.5,2.6-3.5,2.3-4.9,1.5s-2.7-2.4-1.2-5l24.4-42.2l-2.7-1.6l-24.3,42.1
	c-2,3.5-1.7,6.4,0.6,8.5l-7.9,13.6c-1.8,0.2-3.1,1.8-2.9,3.6s1.8,3.1,3.6,2.9c1.8-0.2,3.1-1.8,2.9-3.6c0-0.4-0.1-0.7-0.3-1l7.9-13.7
	c3.2,1,5.7-0.2,7.8-3.8l24.2-42L145.2,14.4z"/>
<path class="st0" d="M98.3,0v48.8c0,3-1.9,3.7-3.5,3.7s-3.5-0.8-3.5-3.7V0h-3.2v48.6c0,4,1.7,6.4,4.8,7.1v15.7
	C92,72,91.5,73,91.5,74c0,1.8,1.5,3.3,3.3,3.3c1.8,0,3.3-1.5,3.3-3.3c0-1.1-0.5-2-1.4-2.7V55.6c3.3-0.7,4.8-3,4.8-7.2V0H98.3z"/>
<path class="st0" d="M50.4,11l24.4,42.3c1.5,2.6,0.3,4.2-1.2,5s-3.4,1.1-4.9-1.5L44.3,14.5l-2.8,1.6l24.3,42.1
	c2,3.5,4.6,4.7,7.7,3.7l7.9,13.6c-0.7,1.6,0,3.6,1.6,4.3s3.6,0,4.3-1.6s0-3.6-1.6-4.3c-0.3-0.2-0.7-0.2-1-0.3l-7.9-13.7
	c2.5-2.3,2.7-5,0.6-8.6l-24.2-42L50.4,11z"/>
<path class="st0" d="M14.4,44.4l42.3,24.4c2.6,1.5,2.3,3.5,1.5,4.9s-2.4,2.7-5,1.2L10.9,50.4l-1.6,2.8l42.1,24.3
	c3.5,2,6.4,1.7,8.5-0.6l13.6,7.9c0.2,1.8,1.8,3.1,3.6,2.9s3.1-1.8,2.9-3.6c-0.2-1.8-1.8-3.1-3.6-2.9c-0.4,0-0.7,0.1-1,0.3l-13.7-7.9
	c1-3.2-0.2-5.7-3.8-7.8L16,41.6L14.4,44.4z"/>
<path class="st0" d="M0,91.3h48.8c3,0,3.7,1.9,3.7,3.5s-0.8,3.5-3.7,3.5H0v3.2h48.6c4,0,6.4-1.7,7.1-4.8h15.7c1,1.5,3.1,1.8,4.5,0.8
	s1.8-3.1,0.8-4.5c-1-1.5-3.1-1.8-4.5-0.8c-0.3,0.2-0.5,0.5-0.8,0.8H55.6c-0.7-3.3-3-4.8-7.2-4.8H0V91.3z"/>
</svg>
